<?xml version="1.0" encoding="UTF-8" standalone="no"?>
<!DOCTYPE svg PUBLIC "-//W3C//DTD SVG 1.1//EN"
 "http://www.w3.org/Graphics/SVG/1.1/DTD/svg11.dtd">
<!-- Generated by graphviz version 2.40.1 (20161225.0304)
 -->
<!-- Title: %3 Pages: 1 -->
<svg width="332pt" height="160pt"
 viewBox="0.00 0.00 332.00 160.00" xmlns="http://www.w3.org/2000/svg" xmlns:xlink="http://www.w3.org/1999/xlink">
<g id="graph0" class="graph" transform="scale(1 1) rotate(0) translate(4 156)">
<title>%3</title>
<polygon fill="#ffffff" stroke="transparent" points="-4,4 -4,-156 328,-156 328,4 -4,4"/>
<!-- C1 -->
<g id="node1" class="node">
<title>C1</title>
<text text-anchor="middle" x="18" y="-130.3" font-family="Times,serif" font-size="14.00" fill="#000000">C1</text>
</g>
<!-- A1 -->
<g id="node2" class="node">
<title>A1</title>
<text text-anchor="middle" x="90" y="-102.3" font-family="Times,serif" font-size="14.00" fill="#000000">A1</text>
</g>
<!-- C1&#45;&gt;A1 -->
<g id="edge10" class="edge">
<title>C1&#45;&gt;A1</title>
<path fill="none" stroke="#0000ff" d="M36.1686,-126.9344C44.0383,-123.874 53.4288,-120.2221 62.1467,-116.8318"/>
<polygon fill="#0000ff" stroke="#0000ff" points="63.5353,-120.0473 71.5867,-113.1607 60.9981,-113.5232 63.5353,-120.0473"/>
</g>
<!-- Y1 -->
<g id="node4" class="node">
<title>Y1</title>
<text text-anchor="middle" x="306" y="-121.3" font-family="Times,serif" font-size="14.00" fill="#000000">Y1</text>
</g>
<!-- C1&#45;&gt;Y1 -->
<g id="edge8" class="edge">
<title>C1&#45;&gt;Y1</title>
<path fill="none" stroke="#0000ff" d="M36.2744,-133.9536C54.46,-133.8705 83.163,-133.6396 108,-133 168.4124,-131.4443 239.143,-128.2569 277.5876,-126.4095"/>
<polygon fill="#0000ff" stroke="#0000ff" points="278.1692,-129.8855 287.9877,-125.9045 277.8296,-122.8937 278.1692,-129.8855"/>
</g>
<!-- M1 -->
<g id="node3" class="node">
<title>M1</title>
<text text-anchor="middle" x="162" y="-96.3" font-family="Times,serif" font-size="14.00" fill="#000000">M1</text>
</g>
<!-- A1&#45;&gt;M1 -->
<g id="edge9" class="edge">
<title>A1&#45;&gt;M1</title>
<path fill="none" stroke="#0000ff" d="M108.1686,-104.4859C115.869,-103.8442 125.0257,-103.0812 133.5834,-102.3681"/>
<polygon fill="#0000ff" stroke="#0000ff" points="133.912,-105.8529 143.5867,-101.5344 133.3306,-98.8771 133.912,-105.8529"/>
</g>
<!-- M1&#45;&gt;Y1 -->
<g id="edge3" class="edge">
<title>M1&#45;&gt;Y1</title>
<path fill="none" stroke="#0000ff" d="M180.2377,-103.1663C204.9072,-107.4492 249.1402,-115.1285 278.0269,-120.1436"/>
<polygon fill="#0000ff" stroke="#0000ff" points="277.459,-123.5973 287.9104,-121.8594 278.6565,-116.7004 277.459,-123.5973"/>
</g>
<!-- M2 -->
<g id="node7" class="node">
<title>M2</title>
<text text-anchor="middle" x="234" y="-37.3" font-family="Times,serif" font-size="14.00" fill="#000000">M2</text>
</g>
<!-- M1&#45;&gt;M2 -->
<g id="edge11" class="edge">
<title>M1&#45;&gt;M2</title>
<path fill="none" stroke="#a52a2a" d="M180.1686,-85.1118C191,-76.2361 204.7124,-64.9995 215.5867,-56.0886"/>
</g>
<!-- Y2 -->
<g id="node8" class="node">
<title>Y2</title>
<text text-anchor="middle" x="306" y="-37.3" font-family="Times,serif" font-size="14.00" fill="#000000">Y2</text>
</g>
<!-- M1&#45;&gt;Y2 -->
<g id="edge1" class="edge">
<title>M1&#45;&gt;Y2</title>
<path fill="none" stroke="#0000ff" d="M180.178,-94.2612C198.5352,-88.2976 227.5886,-78.3968 252,-68 260.8282,-64.2401 270.248,-59.7165 278.7073,-55.4562"/>
<polygon fill="#0000ff" stroke="#0000ff" points="280.4643,-58.4887 287.7672,-50.8129 277.2716,-52.2592 280.4643,-58.4887"/>
</g>
<!-- C2 -->
<g id="node5" class="node">
<title>C2</title>
<text text-anchor="middle" x="90" y="-14.3" font-family="Times,serif" font-size="14.00" fill="#000000">C2</text>
</g>
<!-- A2 -->
<g id="node6" class="node">
<title>A2</title>
<text text-anchor="middle" x="162" y="-37.3" font-family="Times,serif" font-size="14.00" fill="#000000">A2</text>
</g>
<!-- C2&#45;&gt;A2 -->
<g id="edge4" class="edge">
<title>C2&#45;&gt;A2</title>
<path fill="none" stroke="#0000ff" d="M108.1686,-23.8039C115.9537,-26.2908 125.2271,-29.2531 133.8653,-32.0125"/>
<polygon fill="#0000ff" stroke="#0000ff" points="132.9959,-35.409 143.5867,-35.118 135.126,-28.7409 132.9959,-35.409"/>
</g>
<!-- C2&#45;&gt;Y2 -->
<g id="edge5" class="edge">
<title>C2&#45;&gt;Y2</title>
<path fill="none" stroke="#0000ff" d="M108.2898,-14.5696C138.6297,-9.5367 201.0714,-1.9774 252,-14 261.1906,-16.1696 270.6005,-20.1562 278.9369,-24.4121"/>
<polygon fill="#0000ff" stroke="#0000ff" points="277.3676,-27.5427 287.8241,-29.2492 280.714,-21.3944 277.3676,-27.5427"/>
</g>
<!-- A2&#45;&gt;M2 -->
<g id="edge7" class="edge">
<title>A2&#45;&gt;M2</title>
<path fill="none" stroke="#0000ff" d="M180.1686,-41C187.869,-41 197.0257,-41 205.5834,-41"/>
<polygon fill="#0000ff" stroke="#0000ff" points="205.5868,-44.5001 215.5867,-41 205.5867,-37.5001 205.5868,-44.5001"/>
</g>
<!-- M2&#45;&gt;Y1 -->
<g id="edge2" class="edge">
<title>M2&#45;&gt;Y1</title>
<path fill="none" stroke="#0000ff" d="M249.6229,-59.2267C259.624,-70.8947 272.7536,-86.2126 283.8258,-99.1301"/>
<polygon fill="#0000ff" stroke="#0000ff" points="281.2422,-101.494 290.4076,-106.8088 286.557,-96.9385 281.2422,-101.494"/>
</g>
<!-- M2&#45;&gt;Y2 -->
<g id="edge6" class="edge">
<title>M2&#45;&gt;Y2</title>
<path fill="none" stroke="#0000ff" d="M252.1686,-41C259.869,-41 269.0257,-41 277.5834,-41"/>
<polygon fill="#0000ff" stroke="#0000ff" points="277.5868,-44.5001 287.5867,-41 277.5867,-37.5001 277.5868,-44.5001"/>
</g>
</g>
</svg>
