<?xml version="1.0" encoding="UTF-8" standalone="no"?>
<!DOCTYPE svg PUBLIC "-//W3C//DTD SVG 1.1//EN"
 "http://www.w3.org/Graphics/SVG/1.1/DTD/svg11.dtd">
<!-- Generated by graphviz version 2.40.1 (0)
 -->
<!-- Title: %3 Pages: 1 -->
<svg width="342pt" height="160pt"
 viewBox="0.00 0.00 342.00 160.00" xmlns="http://www.w3.org/2000/svg" xmlns:xlink="http://www.w3.org/1999/xlink">
<g id="graph0" class="graph" transform="scale(1 1) rotate(0) translate(4 156)">
<title>%3</title>
<polygon fill="#ffffff" stroke="transparent" points="-4,4 -4,-156 338,-156 338,4 -4,4"/>
<!-- C1 -->
<g id="node1" class="node">
<title>C1</title>
<text text-anchor="middle" x="18.5" y="-130.3" font-family="Times,serif" font-size="14.00" fill="#000000">C1</text>
</g>
<!-- A1 -->
<g id="node2" class="node">
<title>A1</title>
<text text-anchor="middle" x="91.5" y="-102.3" font-family="Times,serif" font-size="14.00" fill="#000000">A1</text>
</g>
<!-- C1&#45;&gt;A1 -->
<g id="edge6" class="edge">
<title>C1&#45;&gt;A1</title>
<path fill="none" stroke="#0000ff" d="M37.2993,-126.7893C45.341,-123.7048 54.8953,-120.0402 63.7257,-116.6532"/>
<polygon fill="#0000ff" stroke="#0000ff" points="65.1855,-119.8419 73.2688,-112.9928 62.6786,-113.3062 65.1855,-119.8419"/>
</g>
<!-- Y1 -->
<g id="node4" class="node">
<title>Y1</title>
<text text-anchor="middle" x="316" y="-121.3" font-family="Times,serif" font-size="14.00" fill="#000000">Y1</text>
</g>
<!-- C1&#45;&gt;Y1 -->
<g id="edge2" class="edge">
<title>C1&#45;&gt;Y1</title>
<path fill="none" stroke="#0000ff" d="M37.0788,-133.9487C55.5673,-133.8618 84.7485,-133.6282 110,-133 173.5832,-131.4182 248.1566,-128.1775 287.8234,-126.3433"/>
<polygon fill="#0000ff" stroke="#0000ff" points="287.9923,-129.8393 297.8182,-125.8766 287.6658,-122.8469 287.9923,-129.8393"/>
</g>
<!-- M1 -->
<g id="node3" class="node">
<title>M1</title>
<text text-anchor="middle" x="166" y="-96.3" font-family="Times,serif" font-size="14.00" fill="#000000">M1</text>
</g>
<!-- A1&#45;&gt;M1 -->
<g id="edge8" class="edge">
<title>A1&#45;&gt;M1</title>
<path fill="none" stroke="#0000ff" d="M109.5344,-104.5476C117.3961,-103.9144 126.8305,-103.1546 135.7164,-102.439"/>
<polygon fill="#0000ff" stroke="#0000ff" points="136.0819,-105.9209 145.7686,-101.6294 135.5199,-98.9435 136.0819,-105.9209"/>
</g>
<!-- M1&#45;&gt;Y1 -->
<g id="edge1" class="edge">
<title>M1&#45;&gt;Y1</title>
<path fill="none" stroke="#0000ff" d="M186.2297,-103.3716C212.4392,-107.7399 258.27,-115.3783 287.8615,-120.3102"/>
<polygon fill="#0000ff" stroke="#0000ff" points="287.5231,-123.802 297.9624,-121.9937 288.6739,-116.8973 287.5231,-123.802"/>
</g>
<!-- M2 -->
<g id="node7" class="node">
<title>M2</title>
<text text-anchor="middle" x="242" y="-37.3" font-family="Times,serif" font-size="14.00" fill="#000000">M2</text>
</g>
<!-- M1&#45;&gt;M2 -->
<g id="edge11" class="edge">
<title>M1&#45;&gt;M2</title>
<path fill="none" stroke="#a52a2a" d="M186.3666,-84.1891C197.3589,-75.6556 210.8805,-65.1585 221.8407,-56.65"/>
</g>
<!-- Y2 -->
<g id="node8" class="node">
<title>Y2</title>
<text text-anchor="middle" x="316" y="-37.3" font-family="Times,serif" font-size="14.00" fill="#000000">Y2</text>
</g>
<!-- M1&#45;&gt;Y2 -->
<g id="edge10" class="edge">
<title>M1&#45;&gt;Y2</title>
<path fill="none" stroke="#0000ff" d="M186.1596,-94.192C205.7973,-88.3223 236.3552,-78.6224 262,-68 270.8651,-64.3279 280.2954,-59.8294 288.753,-55.565"/>
<polygon fill="#0000ff" stroke="#0000ff" points="290.516,-58.5941 297.8065,-50.9065 287.3132,-52.3697 290.516,-58.5941"/>
</g>
<!-- C2 -->
<g id="node5" class="node">
<title>C2</title>
<text text-anchor="middle" x="91.5" y="-14.3" font-family="Times,serif" font-size="14.00" fill="#000000">C2</text>
</g>
<!-- A2 -->
<g id="node6" class="node">
<title>A2</title>
<text text-anchor="middle" x="166" y="-37.3" font-family="Times,serif" font-size="14.00" fill="#000000">A2</text>
</g>
<!-- C2&#45;&gt;A2 -->
<g id="edge9" class="edge">
<title>C2&#45;&gt;A2</title>
<path fill="none" stroke="#0000ff" d="M110.2995,-23.8039C118.7832,-26.423 128.9751,-29.5695 138.3084,-32.4509"/>
<polygon fill="#0000ff" stroke="#0000ff" points="137.39,-35.8303 147.9775,-35.436 139.455,-29.1418 137.39,-35.8303"/>
</g>
<!-- C2&#45;&gt;Y2 -->
<g id="edge3" class="edge">
<title>C2&#45;&gt;Y2</title>
<path fill="none" stroke="#0000ff" d="M110.2377,-14.5124C141.9752,-9.2769 208.1126,-1.2789 262,-14 271.1906,-16.1696 280.6005,-20.1562 288.9369,-24.4121"/>
<polygon fill="#0000ff" stroke="#0000ff" points="287.3676,-27.5427 297.8241,-29.2492 290.714,-21.3944 287.3676,-27.5427"/>
</g>
<!-- A2&#45;&gt;M2 -->
<g id="edge4" class="edge">
<title>A2&#45;&gt;M2</title>
<path fill="none" stroke="#0000ff" d="M184.0109,-41C192.303,-41 202.3702,-41 211.7739,-41"/>
<polygon fill="#0000ff" stroke="#0000ff" points="211.9791,-44.5001 221.9791,-41 211.9791,-37.5001 211.9791,-44.5001"/>
</g>
<!-- M2&#45;&gt;Y1 -->
<g id="edge7" class="edge">
<title>M2&#45;&gt;Y1</title>
<path fill="none" stroke="#0000ff" d="M258.0569,-59.2267C268.3358,-70.8947 281.8301,-86.2126 293.2099,-99.1301"/>
<polygon fill="#0000ff" stroke="#0000ff" points="290.7378,-101.6188 299.9744,-106.8088 295.9904,-96.9916 290.7378,-101.6188"/>
</g>
<!-- M2&#45;&gt;Y2 -->
<g id="edge5" class="edge">
<title>M2&#45;&gt;Y2</title>
<path fill="none" stroke="#0000ff" d="M262.2208,-41C270.0439,-41 279.1367,-41 287.5951,-41"/>
<polygon fill="#0000ff" stroke="#0000ff" points="287.8265,-44.5001 297.8265,-41 287.8265,-37.5001 287.8265,-44.5001"/>
</g>
</g>
</svg>
