<?xml version="1.0" encoding="UTF-8" standalone="no"?>
<!DOCTYPE svg PUBLIC "-//W3C//DTD SVG 1.1//EN"
 "http://www.w3.org/Graphics/SVG/1.1/DTD/svg11.dtd">
<!-- Generated by graphviz version 2.40.1 (20161225.0304)
 -->
<!-- Title: %3 Pages: 1 -->
<svg width="260pt" height="136pt"
 viewBox="0.00 0.00 260.00 136.00" xmlns="http://www.w3.org/2000/svg" xmlns:xlink="http://www.w3.org/1999/xlink">
<g id="graph0" class="graph" transform="scale(1 1) rotate(0) translate(4 132)">
<title>%3</title>
<polygon fill="#ffffff" stroke="transparent" points="-4,4 -4,-132 256,-132 256,4 -4,4"/>
<!-- A -->
<g id="node1" class="node">
<title>A</title>
<text text-anchor="middle" x="18" y="-60.3" font-family="Times,serif" font-size="14.00" fill="#000000">A</text>
</g>
<!-- B -->
<g id="node2" class="node">
<title>B</title>
<text text-anchor="middle" x="90" y="-60.3" font-family="Times,serif" font-size="14.00" fill="#000000">B</text>
</g>
<!-- A&#45;&gt;B -->
<g id="edge3" class="edge">
<title>A&#45;&gt;B</title>
<path fill="none" stroke="#0000ff" d="M36.1686,-64C43.869,-64 53.0257,-64 61.5834,-64"/>
<polygon fill="#0000ff" stroke="#0000ff" points="61.5868,-67.5001 71.5867,-64 61.5867,-60.5001 61.5868,-67.5001"/>
</g>
<!-- C -->
<g id="node3" class="node">
<title>C</title>
<text text-anchor="middle" x="162" y="-106.3" font-family="Times,serif" font-size="14.00" fill="#000000">C</text>
</g>
<!-- A&#45;&gt;C -->
<g id="edge8" class="edge">
<title>A&#45;&gt;C</title>
<path fill="none" stroke="#ff0000" d="M45.4095,-79.4002C53.7559,-83.622 63.0844,-87.8878 72,-91 92.1657,-98.0394 115.8267,-102.9095 133.8262,-105.9556"/>
<polygon fill="#ff0000" stroke="#ff0000" points="46.9594,-76.2609 36.4778,-74.716 43.7083,-82.4601 46.9594,-76.2609"/>
<polygon fill="#ff0000" stroke="#ff0000" points="133.2721,-109.4114 143.7005,-107.5409 134.3818,-102.4999 133.2721,-109.4114"/>
</g>
<!-- D -->
<g id="node4" class="node">
<title>D</title>
<text text-anchor="middle" x="162" y="-14.3" font-family="Times,serif" font-size="14.00" fill="#000000">D</text>
</g>
<!-- A&#45;&gt;D -->
<g id="edge4" class="edge">
<title>A&#45;&gt;D</title>
<path fill="none" stroke="#0000ff" d="M36.4778,-53.284C46.6761,-47.7521 59.729,-41.2835 72,-37 92.1657,-29.9606 115.8267,-25.0905 133.8262,-22.0444"/>
<polygon fill="#0000ff" stroke="#0000ff" points="134.3818,-25.5001 143.7005,-20.4591 133.2721,-18.5886 134.3818,-25.5001"/>
</g>
<!-- B&#45;&gt;C -->
<g id="edge1" class="edge">
<title>B&#45;&gt;C</title>
<path fill="none" stroke="#0000ff" d="M108.1686,-75.6077C116.2921,-80.7978 126.0363,-87.0232 134.9882,-92.7425"/>
<polygon fill="#0000ff" stroke="#0000ff" points="133.2754,-95.8015 143.5867,-98.236 137.0441,-89.9026 133.2754,-95.8015"/>
</g>
<!-- B&#45;&gt;D -->
<g id="edge5" class="edge">
<title>B&#45;&gt;D</title>
<path fill="none" stroke="#0000ff" d="M108.1686,-46.4399C116.2075,-40.5205 125.8334,-34.1643 134.7082,-28.8651"/>
<polygon fill="#0000ff" stroke="#0000ff" points="136.6433,-31.7905 143.5867,-23.788 133.1684,-25.7138 136.6433,-31.7905"/>
</g>
<!-- B&#45;&gt;D -->
<g id="edge7" class="edge">
<title>B&#45;&gt;D</title>
<path fill="none" stroke="#ff0000" d="M117.0225,-53.2955C122.9749,-49.7496 129.277,-45.7197 135.2197,-41.6589"/>
<polygon fill="#ff0000" stroke="#ff0000" points="115.1215,-50.3504 108.1686,-58.3447 118.5893,-56.4311 115.1215,-50.3504"/>
<polygon fill="#ff0000" stroke="#ff0000" points="137.4442,-44.3725 143.5867,-35.74 133.4016,-38.6579 137.4442,-44.3725"/>
</g>
<!-- Y -->
<g id="node5" class="node">
<title>Y</title>
<text text-anchor="middle" x="234" y="-60.3" font-family="Times,serif" font-size="14.00" fill="#000000">Y</text>
</g>
<!-- B&#45;&gt;Y -->
<g id="edge9" class="edge">
<title>B&#45;&gt;Y</title>
<path fill="none" stroke="#ff0000" d="M118.5287,-64C143.8633,-64 180.6754,-64 205.8843,-64"/>
<polygon fill="#ff0000" stroke="#ff0000" points="118.2377,-60.5001 108.2377,-64 118.2377,-67.5001 118.2377,-60.5001"/>
<polygon fill="#ff0000" stroke="#ff0000" points="205.9104,-67.5001 215.9104,-64 205.9103,-60.5001 205.9104,-67.5001"/>
</g>
<!-- C&#45;&gt;Y -->
<g id="edge2" class="edge">
<title>C&#45;&gt;Y</title>
<path fill="none" stroke="#0000ff" d="M180.1686,-98.3923C188.2921,-93.2022 198.0363,-86.9768 206.9882,-81.2575"/>
<polygon fill="#0000ff" stroke="#0000ff" points="209.0441,-84.0974 215.5867,-75.764 205.2754,-78.1985 209.0441,-84.0974"/>
</g>
<!-- D&#45;&gt;Y -->
<g id="edge6" class="edge">
<title>D&#45;&gt;Y</title>
<path fill="none" stroke="#0000ff" d="M180.1686,-29.6077C188.2921,-34.7978 198.0363,-41.0232 206.9882,-46.7425"/>
<polygon fill="#0000ff" stroke="#0000ff" points="205.2754,-49.8015 215.5867,-52.236 209.0441,-43.9026 205.2754,-49.8015"/>
</g>
</g>
</svg>
