<?xml version="1.0" encoding="UTF-8" standalone="no"?>
<!DOCTYPE svg PUBLIC "-//W3C//DTD SVG 1.1//EN"
 "http://www.w3.org/Graphics/SVG/1.1/DTD/svg11.dtd">
<!-- Generated by graphviz version 2.40.1 (0)
 -->
<!-- Title: %3 Pages: 1 -->
<svg width="268pt" height="158pt"
 viewBox="0.00 0.00 268.00 158.00" xmlns="http://www.w3.org/2000/svg" xmlns:xlink="http://www.w3.org/1999/xlink">
<g id="graph0" class="graph" transform="scale(1 1) rotate(0) translate(4 154)">
<title>%3</title>
<polygon fill="#ffffff" stroke="transparent" points="-4,4 -4,-154 264,-154 264,4 -4,4"/>
<!-- A1 -->
<g id="node1" class="node">
<title>A1</title>
<text text-anchor="middle" x="18" y="-128.3" font-family="Times,serif" font-size="14.00" fill="#000000">A1</text>
</g>
<!-- M1 -->
<g id="node2" class="node">
<title>M1</title>
<text text-anchor="middle" x="92" y="-98.3" font-family="Times,serif" font-size="14.00" fill="#000000">M1</text>
</g>
<!-- A1&#45;&gt;M1 -->
<g id="edge5" class="edge">
<title>A1&#45;&gt;M1</title>
<path fill="none" stroke="#0000ff" d="M36.2921,-124.5843C44.2128,-121.3732 53.6856,-117.5329 62.5538,-113.9377"/>
<polygon fill="#0000ff" stroke="#0000ff" points="63.8848,-117.1748 71.8372,-110.1741 61.2548,-110.6876 63.8848,-117.1748"/>
</g>
<!-- Y1 -->
<g id="node3" class="node">
<title>Y1</title>
<text text-anchor="middle" x="242" y="-121.3" font-family="Times,serif" font-size="14.00" fill="#000000">Y1</text>
</g>
<!-- A1&#45;&gt;Y1 -->
<g id="edge7" class="edge">
<title>A1&#45;&gt;Y1</title>
<path fill="none" stroke="#ff0000" d="M46.1636,-131.2373C79.8849,-130.3089 138.0716,-128.6588 188,-127 196.2145,-126.7271 205.1309,-126.4067 213.3068,-126.1034"/>
<polygon fill="#ff0000" stroke="#ff0000" points="46.0167,-127.7399 36.1163,-131.5125 46.2084,-134.7373 46.0167,-127.7399"/>
<polygon fill="#ff0000" stroke="#ff0000" points="213.6455,-129.5932 223.5069,-125.7198 213.3824,-122.5981 213.6455,-129.5932"/>
</g>
<!-- M1&#45;&gt;Y1 -->
<g id="edge1" class="edge">
<title>M1&#45;&gt;Y1</title>
<path fill="none" stroke="#0000ff" d="M112.2297,-105.1019C138.4392,-109.1207 184.27,-116.1481 213.8615,-120.6854"/>
<polygon fill="#0000ff" stroke="#0000ff" points="213.5474,-124.1781 223.9624,-122.2342 214.6084,-117.259 213.5474,-124.1781"/>
</g>
<!-- M2 -->
<g id="node5" class="node">
<title>M2</title>
<text text-anchor="middle" x="168" y="-37.3" font-family="Times,serif" font-size="14.00" fill="#000000">M2</text>
</g>
<!-- M1&#45;&gt;M2 -->
<g id="edge9" class="edge">
<title>M1&#45;&gt;M2</title>
<path fill="none" stroke="#a52a2a" d="M112.3666,-85.6531C123.3589,-76.8304 136.8805,-65.9775 147.8407,-57.1805"/>
</g>
<!-- Y2 -->
<g id="node6" class="node">
<title>Y2</title>
<text text-anchor="middle" x="242" y="-37.3" font-family="Times,serif" font-size="14.00" fill="#000000">Y2</text>
</g>
<!-- M1&#45;&gt;Y2 -->
<g id="edge6" class="edge">
<title>M1&#45;&gt;Y2</title>
<path fill="none" stroke="#0000ff" d="M112.1314,-95.6726C131.7483,-89.3201 162.2911,-78.9307 188,-68 196.8305,-64.2455 206.251,-59.7235 214.7102,-55.463"/>
<polygon fill="#0000ff" stroke="#0000ff" points="216.4675,-58.4952 223.7697,-50.8187 213.2742,-52.2661 216.4675,-58.4952"/>
</g>
<!-- A2 -->
<g id="node4" class="node">
<title>A2</title>
<text text-anchor="middle" x="92" y="-14.3" font-family="Times,serif" font-size="14.00" fill="#000000">A2</text>
</g>
<!-- A2&#45;&gt;M2 -->
<g id="edge2" class="edge">
<title>A2&#45;&gt;M2</title>
<path fill="none" stroke="#0000ff" d="M110.0109,-23.4507C118.4813,-26.0141 128.804,-29.1381 138.3797,-32.036"/>
<polygon fill="#0000ff" stroke="#0000ff" points="137.394,-35.3944 147.9791,-34.941 139.4216,-28.6944 137.394,-35.3944"/>
</g>
<!-- A2&#45;&gt;Y2 -->
<g id="edge8" class="edge">
<title>A2&#45;&gt;Y2</title>
<path fill="none" stroke="#ff0000" d="M120.3036,-12.8366C139.6273,-10.276 165.672,-8.7291 188,-14 197.1906,-16.1696 206.6005,-20.1562 214.9369,-24.4121"/>
<polygon fill="#ff0000" stroke="#ff0000" points="119.6994,-9.3879 110.326,-14.3265 120.7333,-16.3112 119.6994,-9.3879"/>
<polygon fill="#ff0000" stroke="#ff0000" points="213.3676,-27.5427 223.8241,-29.2492 216.714,-21.3944 213.3676,-27.5427"/>
</g>
<!-- M2&#45;&gt;Y1 -->
<g id="edge4" class="edge">
<title>M2&#45;&gt;Y1</title>
<path fill="none" stroke="#0000ff" d="M184.0569,-59.2267C194.3358,-70.8947 207.8301,-86.2126 219.2099,-99.1301"/>
<polygon fill="#0000ff" stroke="#0000ff" points="216.7378,-101.6188 225.9744,-106.8088 221.9904,-96.9916 216.7378,-101.6188"/>
</g>
<!-- M2&#45;&gt;Y2 -->
<g id="edge3" class="edge">
<title>M2&#45;&gt;Y2</title>
<path fill="none" stroke="#0000ff" d="M188.2208,-41C196.0439,-41 205.1367,-41 213.5951,-41"/>
<polygon fill="#0000ff" stroke="#0000ff" points="213.8265,-44.5001 223.8265,-41 213.8265,-37.5001 213.8265,-44.5001"/>
</g>
</g>
</svg>
