<?xml version="1.0" encoding="UTF-8" standalone="no"?>
<!DOCTYPE svg PUBLIC "-//W3C//DTD SVG 1.1//EN"
 "http://www.w3.org/Graphics/SVG/1.1/DTD/svg11.dtd">
<!-- Generated by graphviz version 2.40.1 (20161225.0304)
 -->
<!-- Title: %3 Pages: 1 -->
<svg width="260pt" height="67pt"
 viewBox="0.00 0.00 260.00 67.00" xmlns="http://www.w3.org/2000/svg" xmlns:xlink="http://www.w3.org/1999/xlink">
<g id="graph0" class="graph" transform="scale(1 1) rotate(0) translate(4 63)">
<title>%3</title>
<polygon fill="#ffffff" stroke="transparent" points="-4,4 -4,-63 256,-63 256,4 -4,4"/>
<!-- A -->
<g id="node1" class="node">
<title>A</title>
<text text-anchor="middle" x="18" y="-37.3" font-family="Times,serif" font-size="14.00" fill="#000000">A</text>
</g>
<!-- Y -->
<g id="node3" class="node">
<title>Y</title>
<text text-anchor="middle" x="234" y="-37.3" font-family="Times,serif" font-size="14.00" fill="#000000">Y</text>
</g>
<!-- A&#45;&gt;Y -->
<g id="edge4" class="edge">
<title>A&#45;&gt;Y</title>
<path fill="none" stroke="#ff0000" d="M46.6727,-43.5201C54.8483,-44.1311 63.7697,-44.6956 72,-45 119.9672,-46.7741 132.0328,-46.7741 180,-45 188.2303,-44.6956 197.1517,-44.1311 205.3273,-43.5201"/>
<polygon fill="#ff0000" stroke="#ff0000" points="46.7219,-40.013 36.4756,-42.7082 46.1662,-46.991 46.7219,-40.013"/>
<polygon fill="#ff0000" stroke="#ff0000" points="205.8338,-46.991 215.5244,-42.7082 205.2781,-40.013 205.8338,-46.991"/>
</g>
<!-- a -->
<g id="node4" class="node">
<title>a</title>
<polygon fill="none" stroke="#000000" points="108,-36 72,-36 72,0 108,0 108,-36"/>
<text text-anchor="middle" x="90" y="-14.3" font-family="Times,serif" font-size="14.00" fill="#000000">a</text>
</g>
<!-- A&#45;&gt;a -->
<!-- M -->
<g id="node2" class="node">
<title>M</title>
<text text-anchor="middle" x="162" y="-14.3" font-family="Times,serif" font-size="14.00" fill="#000000">M</text>
</g>
<!-- M&#45;&gt;Y -->
<g id="edge3" class="edge">
<title>M&#45;&gt;Y</title>
<path fill="none" stroke="#0000ff" d="M180.1686,-23.8039C187.9537,-26.2908 197.2271,-29.2531 205.8653,-32.0125"/>
<polygon fill="#0000ff" stroke="#0000ff" points="204.9959,-35.409 215.5867,-35.118 207.126,-28.7409 204.9959,-35.409"/>
</g>
<!-- a&#45;&gt;M -->
<g id="edge2" class="edge">
<title>a&#45;&gt;M</title>
<path fill="none" stroke="#0000ff" d="M108.1686,-18C115.869,-18 125.0257,-18 133.5834,-18"/>
<polygon fill="#0000ff" stroke="#0000ff" points="133.5868,-21.5001 143.5867,-18 133.5867,-14.5001 133.5868,-21.5001"/>
</g>
</g>
</svg>
