<?xml version="1.0" encoding="UTF-8" standalone="no"?>
<!DOCTYPE svg PUBLIC "-//W3C//DTD SVG 1.1//EN"
 "http://www.w3.org/Graphics/SVG/1.1/DTD/svg11.dtd">
<!-- Generated by graphviz version 2.40.1 (20161225.0304)
 -->
<!-- Title: %3 Pages: 1 -->
<svg width="260pt" height="158pt"
 viewBox="0.00 0.00 260.00 158.00" xmlns="http://www.w3.org/2000/svg" xmlns:xlink="http://www.w3.org/1999/xlink">
<g id="graph0" class="graph" transform="scale(1 1) rotate(0) translate(4 154)">
<title>%3</title>
<polygon fill="#ffffff" stroke="transparent" points="-4,4 -4,-154 256,-154 256,4 -4,4"/>
<!-- A1 -->
<g id="node1" class="node">
<title>A1</title>
<text text-anchor="middle" x="18" y="-128.3" font-family="Times,serif" font-size="14.00" fill="#000000">A1</text>
</g>
<!-- M1 -->
<g id="node2" class="node">
<title>M1</title>
<text text-anchor="middle" x="90" y="-98.3" font-family="Times,serif" font-size="14.00" fill="#000000">M1</text>
</g>
<!-- A1&#45;&gt;M1 -->
<g id="edge6" class="edge">
<title>A1&#45;&gt;M1</title>
<path fill="none" stroke="#0000ff" d="M36.1686,-124.4297C44.0383,-121.1507 53.4288,-117.238 62.1467,-113.6055"/>
<polygon fill="#0000ff" stroke="#0000ff" points="63.7021,-116.7492 71.5867,-109.6722 61.0098,-110.2876 63.7021,-116.7492"/>
</g>
<!-- Y1 -->
<g id="node3" class="node">
<title>Y1</title>
<text text-anchor="middle" x="234" y="-121.3" font-family="Times,serif" font-size="14.00" fill="#000000">Y1</text>
</g>
<!-- A1&#45;&gt;Y1 -->
<g id="edge8" class="edge">
<title>A1&#45;&gt;Y1</title>
<path fill="none" stroke="#ff0000" d="M46.5566,-131.1719C78.9219,-130.2209 133.2578,-128.5869 180,-127 188.2143,-126.7211 197.1306,-126.3989 205.3065,-126.0956"/>
<polygon fill="#ff0000" stroke="#ff0000" points="46.3588,-127.6761 36.4655,-131.4671 46.5636,-134.6731 46.3588,-127.6761"/>
<polygon fill="#ff0000" stroke="#ff0000" points="205.6448,-129.5855 215.5066,-125.7132 205.3825,-122.5904 205.6448,-129.5855"/>
</g>
<!-- M1&#45;&gt;Y1 -->
<g id="edge3" class="edge">
<title>M1&#45;&gt;Y1</title>
<path fill="none" stroke="#0000ff" d="M108.2377,-104.913C132.9072,-108.8532 177.1402,-115.9182 206.0269,-120.5321"/>
<polygon fill="#0000ff" stroke="#0000ff" points="205.4835,-123.9896 215.9104,-122.1107 206.5876,-117.0772 205.4835,-123.9896"/>
</g>
<!-- M2 -->
<g id="node5" class="node">
<title>M2</title>
<text text-anchor="middle" x="162" y="-37.3" font-family="Times,serif" font-size="14.00" fill="#000000">M2</text>
</g>
<!-- M1&#45;&gt;M2 -->
<g id="edge9" class="edge">
<title>M1&#45;&gt;M2</title>
<path fill="none" stroke="#a52a2a" d="M108.1686,-86.6071C119,-77.4306 132.7124,-65.8131 143.5867,-56.6001"/>
</g>
<!-- Y2 -->
<g id="node6" class="node">
<title>Y2</title>
<text text-anchor="middle" x="234" y="-37.3" font-family="Times,serif" font-size="14.00" fill="#000000">Y2</text>
</g>
<!-- M1&#45;&gt;Y2 -->
<g id="edge1" class="edge">
<title>M1&#45;&gt;Y2</title>
<path fill="none" stroke="#0000ff" d="M108.1475,-95.7613C126.481,-89.3153 155.5163,-78.712 180,-68 188.791,-64.1538 198.2001,-59.6056 206.6612,-55.3494"/>
<polygon fill="#0000ff" stroke="#0000ff" points="208.4124,-58.3852 215.7276,-50.7211 205.2296,-52.1506 208.4124,-58.3852"/>
</g>
<!-- A2 -->
<g id="node4" class="node">
<title>A2</title>
<text text-anchor="middle" x="90" y="-14.3" font-family="Times,serif" font-size="14.00" fill="#000000">A2</text>
</g>
<!-- A2&#45;&gt;M2 -->
<g id="edge5" class="edge">
<title>A2&#45;&gt;M2</title>
<path fill="none" stroke="#0000ff" d="M108.1686,-23.8039C115.9537,-26.2908 125.2271,-29.2531 133.8653,-32.0125"/>
<polygon fill="#0000ff" stroke="#0000ff" points="132.9959,-35.409 143.5867,-35.118 135.126,-28.7409 132.9959,-35.409"/>
</g>
<!-- A2&#45;&gt;Y2 -->
<g id="edge7" class="edge">
<title>A2&#45;&gt;Y2</title>
<path fill="none" stroke="#ff0000" d="M118.2932,-12.8138C136.2092,-10.4895 159.7357,-9.2162 180,-14 189.1906,-16.1696 198.6005,-20.1562 206.9369,-24.4121"/>
<polygon fill="#ff0000" stroke="#ff0000" points="117.5808,-9.381 108.2017,-14.3088 118.6067,-16.3055 117.5808,-9.381"/>
<polygon fill="#ff0000" stroke="#ff0000" points="205.3676,-27.5427 215.8241,-29.2492 208.714,-21.3944 205.3676,-27.5427"/>
</g>
<!-- M2&#45;&gt;Y1 -->
<g id="edge2" class="edge">
<title>M2&#45;&gt;Y1</title>
<path fill="none" stroke="#0000ff" d="M177.6229,-59.2267C187.624,-70.8947 200.7536,-86.2126 211.8258,-99.1301"/>
<polygon fill="#0000ff" stroke="#0000ff" points="209.2422,-101.494 218.4076,-106.8088 214.557,-96.9385 209.2422,-101.494"/>
</g>
<!-- M2&#45;&gt;Y2 -->
<g id="edge4" class="edge">
<title>M2&#45;&gt;Y2</title>
<path fill="none" stroke="#0000ff" d="M180.1686,-41C187.869,-41 197.0257,-41 205.5834,-41"/>
<polygon fill="#0000ff" stroke="#0000ff" points="205.5868,-44.5001 215.5867,-41 205.5867,-37.5001 205.5868,-44.5001"/>
</g>
</g>
</svg>
