<?xml version="1.0" encoding="UTF-8" standalone="no"?>
<!DOCTYPE svg PUBLIC "-//W3C//DTD SVG 1.1//EN"
 "http://www.w3.org/Graphics/SVG/1.1/DTD/svg11.dtd">
<!-- Generated by graphviz version 2.40.1 (20161225.0304)
 -->
<!-- Title: %3 Pages: 1 -->
<svg width="260pt" height="67pt"
 viewBox="0.00 0.00 260.00 67.00" xmlns="http://www.w3.org/2000/svg" xmlns:xlink="http://www.w3.org/1999/xlink">
<g id="graph0" class="graph" transform="scale(1 1) rotate(0) translate(4 63)">
<title>%3</title>
<polygon fill="#ffffff" stroke="transparent" points="-4,4 -4,-63 256,-63 256,4 -4,4"/>
<!-- A -->
<g id="node1" class="node">
<title>A</title>
<text text-anchor="middle" x="90" y="-37.3" font-family="Times,serif" font-size="14.00" fill="#000000">A</text>
</g>
<!-- M -->
<g id="node2" class="node">
<title>M</title>
<text text-anchor="middle" x="162" y="-37.3" font-family="Times,serif" font-size="14.00" fill="#000000">M</text>
</g>
<!-- A&#45;&gt;M -->
<g id="edge4" class="edge">
<title>A&#45;&gt;M</title>
<path fill="none" stroke="#0000ff" d="M108.1686,-41C115.869,-41 125.0257,-41 133.5834,-41"/>
<polygon fill="#0000ff" stroke="#0000ff" points="133.5868,-44.5001 143.5867,-41 133.5867,-37.5001 133.5868,-44.5001"/>
</g>
<!-- Y -->
<g id="node3" class="node">
<title>Y</title>
<text text-anchor="middle" x="234" y="-14.3" font-family="Times,serif" font-size="14.00" fill="#000000">Y</text>
</g>
<!-- M&#45;&gt;Y -->
<g id="edge1" class="edge">
<title>M&#45;&gt;Y</title>
<path fill="none" stroke="#0000ff" d="M180.1686,-35.1961C187.9537,-32.7092 197.2271,-29.7469 205.8653,-26.9875"/>
<polygon fill="#0000ff" stroke="#0000ff" points="207.126,-30.2591 215.5867,-23.882 204.9959,-23.591 207.126,-30.2591"/>
</g>
<!-- C -->
<g id="node4" class="node">
<title>C</title>
<text text-anchor="middle" x="18" y="-14.3" font-family="Times,serif" font-size="14.00" fill="#000000">C</text>
</g>
<!-- C&#45;&gt;A -->
<g id="edge3" class="edge">
<title>C&#45;&gt;A</title>
<path fill="none" stroke="#0000ff" d="M36.1686,-23.8039C43.9537,-26.2908 53.2271,-29.2531 61.8653,-32.0125"/>
<polygon fill="#0000ff" stroke="#0000ff" points="60.9959,-35.409 71.5867,-35.118 63.126,-28.7409 60.9959,-35.409"/>
</g>
<!-- C&#45;&gt;Y -->
<g id="edge2" class="edge">
<title>C&#45;&gt;Y</title>
<path fill="none" stroke="#0000ff" d="M36.4756,-16.2918C46.8969,-15.4136 60.1632,-14.4378 72,-14 119.9672,-12.2259 132.0328,-12.2259 180,-14 188.2303,-14.3044 197.1517,-14.8689 205.3273,-15.4799"/>
<polygon fill="#0000ff" stroke="#0000ff" points="205.2781,-18.987 215.5244,-16.2918 205.8338,-12.009 205.2781,-18.987"/>
</g>
</g>
</svg>
