<?xml version="1.0" encoding="UTF-8" standalone="no"?>
<!DOCTYPE svg PUBLIC "-//W3C//DTD SVG 1.1//EN"
 "http://www.w3.org/Graphics/SVG/1.1/DTD/svg11.dtd">
<!-- Generated by graphviz version 2.40.1 (0)
 -->
<!-- Title: %3 Pages: 1 -->
<svg width="172pt" height="188pt"
 viewBox="0.00 0.00 172.00 188.00" xmlns="http://www.w3.org/2000/svg" xmlns:xlink="http://www.w3.org/1999/xlink">
<g id="graph0" class="graph" transform="scale(1 1) rotate(0) translate(4 184)">
<title>%3</title>
<polygon fill="#ffffff" stroke="transparent" points="-4,4 -4,-184 168,-184 168,4 -4,4"/>
<!-- SG -->
<g id="node1" class="node">
<title>SG</title>
<text text-anchor="middle" x="81" y="-158.3" font-family="Times,serif" font-size="14.00" fill="#000000">SG</text>
</g>
<!-- ADMG -->
<g id="node2" class="node">
<title>ADMG</title>
<text text-anchor="middle" x="46" y="-86.3" font-family="Times,serif" font-size="14.00" fill="#000000">ADMG</text>
</g>
<!-- SG&#45;&gt;ADMG -->
<g id="edge4" class="edge">
<title>SG&#45;&gt;ADMG</title>
<path fill="none" stroke="#a52a2a" d="M72.168,-143.8314C66.9028,-133 60.237,-119.2876 54.9509,-108.4133"/>
</g>
<!-- CG -->
<g id="node3" class="node">
<title>CG</title>
<text text-anchor="middle" x="116" y="-86.3" font-family="Times,serif" font-size="14.00" fill="#000000">CG</text>
</g>
<!-- SG&#45;&gt;CG -->
<g id="edge3" class="edge">
<title>SG&#45;&gt;CG</title>
<path fill="none" stroke="#a52a2a" d="M89.832,-143.8314C95.0972,-133 101.763,-119.2876 107.0491,-108.4133"/>
</g>
<!-- DAG -->
<g id="node4" class="node">
<title>DAG</title>
<text text-anchor="middle" x="81" y="-14.3" font-family="Times,serif" font-size="14.00" fill="#000000">DAG</text>
</g>
<!-- ADMG&#45;&gt;DAG -->
<g id="edge5" class="edge">
<title>ADMG&#45;&gt;DAG</title>
<path fill="none" stroke="#a52a2a" d="M54.832,-71.8314C60.0972,-61 66.763,-47.2876 72.0491,-36.4133"/>
</g>
<!-- BG -->
<g id="node5" class="node">
<title>BG</title>
<text text-anchor="middle" x="19" y="-14.3" font-family="Times,serif" font-size="14.00" fill="#000000">BG</text>
</g>
<!-- ADMG&#45;&gt;BG -->
<g id="edge6" class="edge">
<title>ADMG&#45;&gt;BG</title>
<path fill="none" stroke="#a52a2a" d="M39.1868,-71.8314C35.125,-61 29.9828,-47.2876 25.905,-36.4133"/>
</g>
<!-- CG&#45;&gt;DAG -->
<g id="edge2" class="edge">
<title>CG&#45;&gt;DAG</title>
<path fill="none" stroke="#a52a2a" d="M107.168,-71.8314C101.9028,-61 95.237,-47.2876 89.9509,-36.4133"/>
</g>
<!-- UG -->
<g id="node6" class="node">
<title>UG</title>
<text text-anchor="middle" x="144" y="-14.3" font-family="Times,serif" font-size="14.00" fill="#000000">UG</text>
</g>
<!-- CG&#45;&gt;UG -->
<g id="edge1" class="edge">
<title>CG&#45;&gt;UG</title>
<path fill="none" stroke="#a52a2a" d="M123.0656,-71.8314C127.2778,-61 132.6104,-47.2876 136.8393,-36.4133"/>
</g>
</g>
</svg>
