<?xml version="1.0" encoding="UTF-8" standalone="no"?>
<!DOCTYPE svg PUBLIC "-//W3C//DTD SVG 1.1//EN"
 "http://www.w3.org/Graphics/SVG/1.1/DTD/svg11.dtd">
<!-- Generated by graphviz version 2.40.1 (20161225.0304)
 -->
<!-- Title: %3 Pages: 1 -->
<svg width="188pt" height="67pt"
 viewBox="0.00 0.00 188.00 67.00" xmlns="http://www.w3.org/2000/svg" xmlns:xlink="http://www.w3.org/1999/xlink">
<g id="graph0" class="graph" transform="scale(1 1) rotate(0) translate(4 63)">
<title>%3</title>
<polygon fill="#ffffff" stroke="transparent" points="-4,4 -4,-63 184,-63 184,4 -4,4"/>
<!-- A -->
<g id="node1" class="node">
<title>A</title>
<text text-anchor="middle" x="18" y="-14.3" font-family="Times,serif" font-size="14.00" fill="#000000">A</text>
</g>
<!-- M -->
<g id="node2" class="node">
<title>M</title>
<text text-anchor="middle" x="90" y="-37.3" font-family="Times,serif" font-size="14.00" fill="#000000">M</text>
</g>
<!-- A&#45;&gt;M -->
<g id="edge2" class="edge">
<title>A&#45;&gt;M</title>
<path fill="none" stroke="#0000ff" d="M36.1686,-23.8039C43.9537,-26.2908 53.2271,-29.2531 61.8653,-32.0125"/>
<polygon fill="#0000ff" stroke="#0000ff" points="60.9959,-35.409 71.5867,-35.118 63.126,-28.7409 60.9959,-35.409"/>
</g>
<!-- Y -->
<g id="node3" class="node">
<title>Y</title>
<text text-anchor="middle" x="162" y="-14.3" font-family="Times,serif" font-size="14.00" fill="#000000">Y</text>
</g>
<!-- A&#45;&gt;Y -->
<g id="edge3" class="edge">
<title>A&#45;&gt;Y</title>
<path fill="none" stroke="#ff0000" d="M46.6727,-15.4799C54.8483,-14.8689 63.7697,-14.3044 72,-14 87.9891,-13.4086 92.0109,-13.4086 108,-14 116.2303,-14.3044 125.1517,-14.8689 133.3273,-15.4799"/>
<polygon fill="#ff0000" stroke="#ff0000" points="46.1662,-12.009 36.4756,-16.2918 46.7219,-18.987 46.1662,-12.009"/>
<polygon fill="#ff0000" stroke="#ff0000" points="133.2781,-18.987 143.5244,-16.2918 133.8338,-12.009 133.2781,-18.987"/>
</g>
<!-- M&#45;&gt;Y -->
<g id="edge1" class="edge">
<title>M&#45;&gt;Y</title>
<path fill="none" stroke="#0000ff" d="M108.1686,-35.1961C115.9537,-32.7092 125.2271,-29.7469 133.8653,-26.9875"/>
<polygon fill="#0000ff" stroke="#0000ff" points="135.126,-30.2591 143.5867,-23.882 132.9959,-23.591 135.126,-30.2591"/>
</g>
</g>
</svg>
