<?xml version="1.0" encoding="UTF-8" standalone="no"?>
<!DOCTYPE svg PUBLIC "-//W3C//DTD SVG 1.1//EN"
 "http://www.w3.org/Graphics/SVG/1.1/DTD/svg11.dtd">
<!-- Generated by graphviz version 2.40.1 (20161225.0304)
 -->
<!-- Title: %3 Pages: 1 -->
<svg width="165pt" height="188pt"
 viewBox="0.00 0.00 164.50 188.00" xmlns="http://www.w3.org/2000/svg" xmlns:xlink="http://www.w3.org/1999/xlink">
<g id="graph0" class="graph" transform="scale(1 1) rotate(0) translate(4 184)">
<title>%3</title>
<polygon fill="#ffffff" stroke="transparent" points="-4,4 -4,-184 160.5,-184 160.5,4 -4,4"/>
<!-- SG -->
<g id="node1" class="node">
<title>SG</title>
<text text-anchor="middle" x="78" y="-158.3" font-family="Times,serif" font-size="14.00" fill="#000000">SG</text>
</g>
<!-- ADMG -->
<g id="node2" class="node">
<title>ADMG</title>
<text text-anchor="middle" x="45" y="-86.3" font-family="Times,serif" font-size="14.00" fill="#000000">ADMG</text>
</g>
<!-- SG&#45;&gt;ADMG -->
<g id="edge5" class="edge">
<title>SG&#45;&gt;ADMG</title>
<path fill="none" stroke="#a52a2a" d="M69.6727,-143.8314C64.7083,-133 58.4235,-119.2876 53.4394,-108.4133"/>
</g>
<!-- CG -->
<g id="node3" class="node">
<title>CG</title>
<text text-anchor="middle" x="111" y="-86.3" font-family="Times,serif" font-size="14.00" fill="#000000">CG</text>
</g>
<!-- SG&#45;&gt;CG -->
<g id="edge6" class="edge">
<title>SG&#45;&gt;CG</title>
<path fill="none" stroke="#a52a2a" d="M86.3273,-143.8314C91.2917,-133 97.5765,-119.2876 102.5606,-108.4133"/>
</g>
<!-- DAG -->
<g id="node4" class="node">
<title>DAG</title>
<text text-anchor="middle" x="78" y="-14.3" font-family="Times,serif" font-size="14.00" fill="#000000">DAG</text>
</g>
<!-- ADMG&#45;&gt;DAG -->
<g id="edge2" class="edge">
<title>ADMG&#45;&gt;DAG</title>
<path fill="none" stroke="#a52a2a" d="M53.3273,-71.8314C58.2917,-61 64.5765,-47.2876 69.5606,-36.4133"/>
</g>
<!-- BG -->
<g id="node5" class="node">
<title>BG</title>
<text text-anchor="middle" x="18" y="-14.3" font-family="Times,serif" font-size="14.00" fill="#000000">BG</text>
</g>
<!-- ADMG&#45;&gt;BG -->
<g id="edge4" class="edge">
<title>ADMG&#45;&gt;BG</title>
<path fill="none" stroke="#a52a2a" d="M38.1868,-71.8314C34.125,-61 28.9828,-47.2876 24.905,-36.4133"/>
</g>
<!-- CG&#45;&gt;DAG -->
<g id="edge1" class="edge">
<title>CG&#45;&gt;DAG</title>
<path fill="none" stroke="#a52a2a" d="M102.6727,-71.8314C97.7083,-61 91.4235,-47.2876 86.4394,-36.4133"/>
</g>
<!-- UG -->
<g id="node6" class="node">
<title>UG</title>
<text text-anchor="middle" x="138" y="-14.3" font-family="Times,serif" font-size="14.00" fill="#000000">UG</text>
</g>
<!-- CG&#45;&gt;UG -->
<g id="edge3" class="edge">
<title>CG&#45;&gt;UG</title>
<path fill="none" stroke="#a52a2a" d="M117.8132,-71.8314C121.875,-61 127.0172,-47.2876 131.095,-36.4133"/>
</g>
</g>
</svg>
